# xmcd
#
# Track frame offsets:
#	150
#	11087
#	23485
#	35310
#	47122
#	61410
#	74507
#	88207
#	101337
#	112977
#	125407
#	138512
#	152052
#	168990
#	182225
#	194625
#	208142
#	222885
#	236382
#	249475
#	264142
#	300600
#	329727
#
# Disc length: 4577 seconds
#
# Revision: 1
# Processed by: cddbd v1.5.2PL0 Copyright (c) Steve Scherf et al.
# Submitted via: audiograbber 1.83.01
#
DISCID=4911df17
DTITLE=Dan Burley - DAN BURLEY - South Side Shake 1945-1951
DYEAR=1900
DGENRE=Blues
TTITLE0=Bedroom Blues
TTITLE1=Living Room Romp
TTITLE2=Kitchen Conniption
TTITLE3=Bathroom Boogie
TTITLE4=Hamp's Salty Blues
TTITLE5=Ridin' On The L and N
TTITLE6=Big Cat , Little Cat
TTITLE7=Shotgun House Rag
TTITLE8=Lake Front Blues
TTITLE9=Three Flights Up
TTITLE10=Dusty Bottom
TTITLE11=South Side Shake
TTITLE12=Boogie In D
TTITLE13=Boogie In C
TTITLE14=Untitled Instrumental
TTITLE15=South Side Shake (Live version)
TTITLE16=Chicken Shack Shuffle
TTITLE17=Skiffle Blues
TTITLE18=They Raided The Joint
TTITLE19=The Cops Are Knockin'
TTITLE20=Skiffle Jam
TTITLE21=Moanin' Dan
TTITLE22=They Raided The Joint - Vanity Smythe
EXTD=
EXTT0=
EXTT1=
EXTT2=
EXTT3=
EXTT4=
EXTT5=
EXTT6=
EXTT7=
EXTT8=
EXTT9=
EXTT10=
EXTT11=
EXTT12=
EXTT13=
EXTT14=
EXTT15=
EXTT16=
EXTT17=
EXTT18=
EXTT19=
EXTT20=
EXTT21=
EXTT22=
PLAYORDER=
